<?xml version="1.0" encoding="utf-8"?>
<!-- Generator: Adobe Illustrator 25.0.1, SVG Export Plug-In . SVG Version: 6.00 Build 0)  -->
<svg version="1.1" id="UMSU_Logo" xmlns="http://www.w3.org/2000/svg" xmlns:xlink="http://www.w3.org/1999/xlink" x="0px" y="0px"
	 viewBox="0 0 118 158" style="enable-background:new 0 0 118 158;" xml:space="preserve">
<style type="text/css">
	.st0{fill:#68217C;}
	.st1{fill:#FFFFFF;}
</style>
<path id="Container" class="st0" d="M118,0v99.1c0,32.6-26.4,58.9-59,58.9S0,131.6,0,99.1h0V0H118z"/>
<g id="Logo">
	<path class="st1" d="M71.1,54.2v29.5V88v12.8c0,7.3-5.4,13.3-12.1,13.3c-6.7,0-12-5.9-12.1-13.3V88v-4.3V54.2H21.6v48.2h0
		c0,20.6,16.7,37.3,37.4,37.3c20.6,0,37.4-16.7,37.4-37.3V54.2H71.1z"/>
	<g>
		<path class="st0" d="M83.8,76.9l0.5-0.2l-1.9,0.7l-1,0.3l-2.7,0.9l1.6,0.5l1.3,0.4l0.1,0l0.8,0.3l0,0l0,0l0.2,0.1l8.3,2.9
			l-10.9,4.8c-0.7,0.3-1.1,0.4-1.7,0.8c-0.8,0.5-1.3,1.5-1.3,2.4c0,1.7,1.2,3,2.7,3c1.1,0,2.1-0.3,2.6-1.3l0,0l1.9-3.7l0,0
			c0,0,0,0,0,0c0.8-1.5,2.2-2.6,4-2.7c2.5,0,4.4,2.1,4.4,4.7c0,1.3-0.3,2.6-0.7,3.5l-1.6-1c0-0.1,0.1-0.3,0.2-0.4
			c0.2-0.5,0.4-1.3,0.4-2c0-1.5-1.2-2.7-2.6-2.7c-1,0-1.9,0.7-2.4,1.6v0l0,0l-1.6,3.2l-0.2,0.5l0,0c0,0,0,0,0,0
			c-0.5,0.9-1.2,1.5-2,1.8c0,0-0.1,0-0.1,0c-0.7,0.2-1.4,0.3-2.3,0.3c-2.4,0-4.4-2.2-4.4-4.9c0-2.4,1.6-3.9,3.6-4.9
			c0,0,0.2-0.1,0.5-0.2c0,0,0,0,0.1,0c1.6-0.7,6.1-2.7,6.1-2.7l-4-1.4l-0.1,0l-8.7-3l8.9-3.2l0.1,0l0,0l4.8-1.7l-5.3-1.1l-2.6-0.6
			l-3.2-0.7v-1.9l18.2,3.8L83.8,76.9z"/>
		<path class="st0" d="M93,99.2H81.1h0h0c-1.5,0-2.7,1-3.2,2.3c-0.1,0.4-0.1,0.8-0.1,1.2c0,0.4,0,0.8,0.1,1.1
			c0.4,1.4,1.7,2.3,3.2,2.3H93v2H80.8c-2.4,0-4.4-1.6-5.1-3.7c-0.2-0.6-0.2-1.2-0.2-1.8c0-0.7,0-1.3,0.2-1.9
			c0.7-2.1,2.7-3.7,5.1-3.7h0h0h0h12V99.2z"/>
		<path class="st0" d="M93,60.2H81.1h0h0c-1.5,0-2.7,1-3.2,2.3c-0.1,0.4-0.1,0.8-0.1,1.2c0,0.4,0,0.8,0.1,1.1
			c0.4,1.4,1.7,2.3,3.2,2.3H93v2H80.8c-2.4,0-4.4-1.6-5.1-3.7c-0.2-0.6-0.2-1.2-0.2-1.8c0-0.7,0-1.3,0.2-1.9
			c0.7-2.1,2.7-3.7,5.1-3.7h0h0h0h12V60.2z"/>
	</g>
</g>
<g>
</g>
<g>
</g>
<g>
</g>
<g>
</g>
<g>
</g>
<g>
</g>
<g>
</g>
<g>
</g>
<g>
</g>
<g>
</g>
<g>
</g>
<g>
</g>
<g>
</g>
<g>
</g>
<g>
</g>
</svg>
